<svg width="31" height="31" viewBox="0 0 31 31" fill="none" xmlns="http://www.w3.org/2000/svg">
<g clip-path="url(#clip0_238_2)">
<path d="M17 14H23V17H17V23H14V17H8V14H14V8H17V14ZM15.5 30.5C11.5218 30.5 7.70644 28.9196 4.8934 26.1066C2.08035 23.2936 0.5 19.4782 0.5 15.5C0.5 11.5218 2.08035 7.70644 4.8934 4.8934C7.70644 2.08035 11.5218 0.5 15.5 0.5C19.4782 0.5 23.2936 2.08035 26.1066 4.8934C28.9196 7.70644 30.5 11.5218 30.5 15.5C30.5 19.4782 28.9196 23.2936 26.1066 26.1066C23.2936 28.9196 19.4782 30.5 15.5 30.5ZM15.5 27.5C18.6826 27.5 21.7348 26.2357 23.9853 23.9853C26.2357 21.7348 27.5 18.6826 27.5 15.5C27.5 12.3174 26.2357 9.26515 23.9853 7.01472C21.7348 4.76428 18.6826 3.5 15.5 3.5C12.3174 3.5 9.26515 4.76428 7.01472 7.01472C4.76428 9.26515 3.5 12.3174 3.5 15.5C3.5 18.6826 4.76428 21.7348 7.01472 23.9853C9.26515 26.2357 12.3174 27.5 15.5 27.5Z" fill="black"/>
</g>
<defs>
<clipPath id="clip0_238_2">
<rect width="30" height="30" fill="white" transform="translate(0.5 0.5)"/>
</clipPath>
</defs>
</svg>
